<?xml version="1.0" encoding="utf-8"?>
<!-- Generator: Adobe Illustrator 25.2.1, SVG Export Plug-In . SVG Version: 6.00 Build 0)  -->
<svg version="1.1" id="Layer_9" xmlns="http://www.w3.org/2000/svg" xmlns:xlink="http://www.w3.org/1999/xlink" x="0px" y="0px"
	 viewBox="0 0 90 90" style="enable-background:new 0 0 90 90;" xml:space="preserve">
<g>
	<path d="M15.5,24.3c0,6.7,5.5,12.2,12.2,12.2c6.7,0,12.2-5.5,12.2-12.2c0-6.7-5.5-12.2-12.2-12.2C20.9,12.1,15.5,17.6,15.5,24.3z
		 M36.8,24.3c0,5.1-4.1,9.2-9.2,9.2c-5.1,0-9.2-4.1-9.2-9.2s4.1-9.2,9.2-9.2C32.7,15.1,36.8,19.3,36.8,24.3z"/>
	<path d="M61,0.5c-6.7,0-12.2,5.5-12.2,12.2c0,6.7,5.5,12.2,12.2,12.2c6.7,0,12.2-5.5,12.2-12.2C73.2,6,67.7,0.5,61,0.5z M61,21.9
		c-5.1,0-9.2-4.1-9.2-9.2s4.1-9.2,9.2-9.2c5.1,0,9.2,4.1,9.2,9.2S66,21.9,61,21.9z"/>
	<path d="M8.5,73.6c0,0.8,0.7,1.5,1.5,1.5h9.3v12.6c0,0.8,0.7,1.5,1.5,1.5h47c0.8,0,1.5-0.7,1.5-1.5V75c6.1-0.8,10.9-6,10.9-12.3
		V40.1c0-6.8-5.6-12.4-12.4-12.4H54.1c-6.8,0-12.4,5.6-12.4,12.4v1.4c-2-1.4-4.4-2.2-7-2.2H20.9c-6.8,0-12.4,5.6-12.4,12.4V73.6z
		 M11.6,51.7c0-5.1,4.2-9.3,9.3-9.3h13.8c2.9,0,5.5,1.3,7.3,3.6c0.4,0.5,1.1,0.7,1.7,0.5c0.6-0.2,1-0.8,1-1.4v-4.9
		c0-5.1,4.2-9.3,9.3-9.3h13.8c5.1,0,9.3,4.2,9.3,9.3v22.6c0,5.1-4.2,9.3-9.3,9.3c-0.8,0-1.5,0.7-1.5,1.5v12.6H22.4V73.6
		c0-0.8-0.7-1.5-1.5-1.5h-9.3V51.7z"/>
	<path d="M30.3,69.8l13,11.6c0.3,0.3,0.7,0.4,1,0.4c0.4,0,0.7-0.1,1-0.4l13-11.6c2-1.8,3.3-4.3,3.4-7.1c0.2-2.7-0.8-5.4-2.6-7.4
		c-3.8-4.2-10.2-4.6-14.5-0.9l-0.4,0.4L44,54.4c-4.2-3.8-10.7-3.4-14.5,0.9c-1.8,2-2.7,4.7-2.6,7.4C27.1,65.4,28.3,67.9,30.3,69.8z
		 M31.8,57.3c1.4-1.6,3.4-2.4,5.4-2.4c1.7,0,3.4,0.6,4.8,1.8l1.5,1.3c0.6,0.5,1.5,0.5,2,0l1.5-1.3c3-2.6,7.5-2.4,10.2,0.6
		c1.3,1.4,1.9,3.3,1.8,5.2c-0.1,1.9-1,3.7-2.4,5l-12,10.7l-12-10.7c-1.4-1.3-2.3-3-2.4-5C29.9,60.6,30.5,58.8,31.8,57.3z"/>
</g>
</svg>
