<?xml version="1.0" encoding="utf-8"?>
<!-- Generator: Adobe Illustrator 24.1.2, SVG Export Plug-In . SVG Version: 6.00 Build 0)  -->
<svg version="1.1" id="Layer_1" xmlns="http://www.w3.org/2000/svg" xmlns:xlink="http://www.w3.org/1999/xlink" x="0px" y="0px"
	 viewBox="0 0 90 90" style="enable-background:new 0 0 90 90;" xml:space="preserve">
<g id="Component_1_1" transform="translate(10.905)">
	<path id="Path_1" d="M68.49,48.85l-0.24-0.33c-5.02-6.94-4.04-9.32-3.1-11.62c0.51-1.05,0.79-2.2,0.84-3.37
		c-0.04-6.82-2.58-13.39-7.14-18.46c1.52-1.44,2.27-3.5,2.05-5.58c-0.18-3.77-3.35-6.71-7.12-6.61H28.88
		c-19.46,0-32.04,12.2-32.04,31.09c0,9.88,4.26,17.88,7.68,24.3c2.21,4.16,4.13,7.75,4.13,10.5c0,2.66-2.37,10.16-3.28,12.82
		c-0.3,0.88,0.17,1.84,1.05,2.14s1.84-0.17,2.14-1.05l0,0c0.36-1.04,3.46-10.21,3.46-13.91c0-0.43-0.03-0.87-0.09-1.3l4.8-6.23
		c0.57-0.74,0.43-1.8-0.31-2.37c-0.74-0.57-1.8-0.43-2.37,0.31l-3.26,4.24c-0.98-2.3-2.08-4.55-3.3-6.73
		C4.25,50.6,0.21,43.02,0.21,33.98c0-17.1,10.98-27.72,28.67-27.72h24.88c1.98-0.09,3.66,1.44,3.76,3.42c0,0.02,0,0.05,0,0.07
		c0.11,1.46-0.51,3.06-1.91,3.27c-4.93,0.76-13.33,1.67-13.42,1.68c-0.93,0.1-1.6,0.93-1.5,1.86c0,0.02,0,0.04,0.01,0.06l0.86,6.03
		c0.26,1.84-1.02,3.55-2.86,3.82c-0.16,0.02-0.32,0.03-0.48,0.03h-2.6c-3.72,0-6.74,3.02-6.74,6.75c0,0.93,0.75,1.69,1.69,1.69
		s1.69-0.75,1.69-1.69c0-1.86,1.51-3.37,3.37-3.37h2.6c3.73,0,6.75-3.02,6.74-6.75c0-0.32-0.02-0.64-0.07-0.95l-0.61-4.31
		c2.61-0.3,7.63-0.88,11.23-1.42c4.49,4.56,7.03,10.69,7.09,17.09c-0.06,0.73-0.26,1.44-0.59,2.09c-1.13,2.79-1.85,5.78,1.08,11.1
		H47.83l-20.6-10.3c-1.58-2.03-4.21-3.19-7.62-3.19c-6.09,0-9.27,4.24-9.27,8.43c0,4.3,1.53,6.65,3.16,9.14
		c0.27,0.4,0.54,0.82,0.82,1.27c1.96,3.12,4.41,6.46,8.67,6.46c0.59,0,1.18-0.07,1.76-0.21l11.42,6.55l8.85,12.26
		c-2.22-0.62-4.3-1.27-5.49-1.65c-0.88-0.29-1.84,0.19-2.13,1.08c-0.02,0.06-0.04,0.13-0.05,0.19l-1.69,8.43
		c-0.16,0.92,0.45,1.79,1.37,1.95c0.89,0.16,1.74-0.41,1.94-1.29l1.32-6.59c2.07,0.64,5.48,1.65,8.42,2.29h0.02
		c1.35,0.33,2.73,0.53,4.12,0.59c3.94,0.13,7.69-1.69,10.04-4.86c3.95-4.96,8.16-13.4,8.16-19.28
		C71.04,52.21,69.5,50.19,68.49,48.85z M17.16,50.28c-0.29-0.46-0.57-0.9-0.85-1.32c-1.57-2.41-2.61-4-2.61-7.29
		c0-2.52,1.83-5.06,5.9-5.06c2.44,0,4.13,0.66,5.06,1.98c0.01,0.01,0.02,0.02,0.02,0.04c0.58,0.91,0.86,1.97,0.82,3.04
		c0,0.93,0.75,1.69,1.69,1.69s1.69-0.75,1.69-1.69c0-0.22-0.02-0.44-0.03-0.66l16.11,8.06l-8.18,12.28l-8.89-5.09
		c0.58-0.79,0.92-1.73,0.98-2.71c0.04-0.93-0.68-1.72-1.61-1.76c-0.91-0.06-1.7,0.64-1.75,1.55c0,0.01,0,0.02,0,0.03
		c-0.05,0.54-0.39,1.79-2.53,1.79C20.67,55.16,19.1,53.37,17.16,50.28z M60.24,75.18c-1.7,2.37-4.49,3.72-7.4,3.59
		c-0.93-0.04-1.85-0.17-2.76-0.38L39.37,63.56l8.97-13.45h16.9c0.1,0.14,0.18,0.26,0.28,0.4l0.29,0.38c0.83,1.1,1.87,2.46,1.87,7.11
		C67.67,62.93,63.89,70.61,60.24,75.18L60.24,75.18z"/>
</g>
</svg>
