<?xml version="1.0" encoding="utf-8"?>
<!-- Generator: Adobe Illustrator 24.1.2, SVG Export Plug-In . SVG Version: 6.00 Build 0)  -->
<svg version="1.1" xmlns="http://www.w3.org/2000/svg" xmlns:xlink="http://www.w3.org/1999/xlink" x="0px" y="0px"
	 viewBox="0 0 90 90" style="enable-background:new 0 0 90 90;" xml:space="preserve">
<style type="text/css">
	.st0{display:none;}
	.st1{display:inline;}
</style>
<g id="Layer_1" class="st0">
	<g id="Component_1_1" transform="translate(10.905)" class="st1">
		<path id="Path_1" d="M68.49,48.85l-0.24-0.33c-5.02-6.94-4.04-9.32-3.1-11.62c0.51-1.05,0.79-2.2,0.84-3.37
			c-0.04-6.82-2.58-13.39-7.14-18.46c1.52-1.44,2.27-3.5,2.05-5.58c-0.18-3.77-3.35-6.71-7.12-6.61H28.88
			c-19.46,0-32.04,12.2-32.04,31.09c0,9.88,4.26,17.88,7.68,24.3c2.21,4.16,4.13,7.75,4.13,10.5c0,2.66-2.37,10.16-3.28,12.82
			c-0.3,0.88,0.17,1.84,1.05,2.14s1.84-0.17,2.14-1.05l0,0c0.36-1.04,3.46-10.21,3.46-13.91c0-0.43-0.03-0.87-0.09-1.3l4.8-6.23
			c0.57-0.74,0.43-1.8-0.31-2.37c-0.74-0.57-1.8-0.43-2.37,0.31l-3.26,4.24c-0.98-2.3-2.08-4.55-3.3-6.73
			C4.25,50.6,0.21,43.02,0.21,33.98c0-17.1,10.98-27.72,28.67-27.72h24.88c1.98-0.09,3.66,1.44,3.76,3.42c0,0.02,0,0.05,0,0.07
			c0.11,1.46-0.51,3.06-1.91,3.27c-4.93,0.76-13.33,1.67-13.42,1.68c-0.93,0.1-1.6,0.93-1.5,1.86c0,0.02,0,0.04,0.01,0.06l0.86,6.03
			c0.26,1.84-1.02,3.55-2.86,3.82c-0.16,0.02-0.32,0.03-0.48,0.03h-2.6c-3.72,0-6.74,3.02-6.74,6.75c0,0.93,0.75,1.69,1.69,1.69
			s1.69-0.75,1.69-1.69c0-1.86,1.51-3.37,3.37-3.37h2.6c3.73,0,6.75-3.02,6.74-6.75c0-0.32-0.02-0.64-0.07-0.95l-0.61-4.31
			c2.61-0.3,7.63-0.88,11.23-1.42c4.49,4.56,7.03,10.69,7.09,17.09c-0.06,0.73-0.26,1.44-0.59,2.09c-1.13,2.79-1.85,5.78,1.08,11.1
			H47.83l-20.6-10.3c-1.58-2.03-4.21-3.19-7.62-3.19c-6.09,0-9.27,4.24-9.27,8.43c0,4.3,1.53,6.65,3.16,9.14
			c0.27,0.4,0.54,0.82,0.82,1.27c1.96,3.12,4.41,6.46,8.67,6.46c0.59,0,1.18-0.07,1.76-0.21l11.42,6.55l8.85,12.26
			c-2.22-0.62-4.3-1.27-5.49-1.65c-0.88-0.29-1.84,0.19-2.13,1.08c-0.02,0.06-0.04,0.13-0.05,0.19l-1.69,8.43
			c-0.16,0.92,0.45,1.79,1.37,1.95c0.89,0.16,1.74-0.41,1.94-1.29l1.32-6.59c2.07,0.64,5.48,1.65,8.42,2.29h0.02
			c1.35,0.33,2.73,0.53,4.12,0.59c3.94,0.13,7.69-1.69,10.04-4.86c3.95-4.96,8.16-13.4,8.16-19.28
			C71.04,52.21,69.5,50.19,68.49,48.85z M17.16,50.28c-0.29-0.46-0.57-0.9-0.85-1.32c-1.57-2.41-2.61-4-2.61-7.29
			c0-2.52,1.83-5.06,5.9-5.06c2.44,0,4.13,0.66,5.06,1.98c0.01,0.01,0.02,0.02,0.02,0.04c0.58,0.91,0.86,1.97,0.82,3.04
			c0,0.93,0.75,1.69,1.69,1.69s1.69-0.75,1.69-1.69c0-0.22-0.02-0.44-0.03-0.66l16.11,8.06l-8.18,12.28l-8.89-5.09
			c0.58-0.79,0.92-1.73,0.98-2.71c0.04-0.93-0.68-1.72-1.61-1.76c-0.91-0.06-1.7,0.64-1.75,1.55c0,0.01,0,0.02,0,0.03
			c-0.05,0.54-0.39,1.79-2.53,1.79C20.67,55.16,19.1,53.37,17.16,50.28z M60.24,75.18c-1.7,2.37-4.49,3.72-7.4,3.59
			c-0.93-0.04-1.85-0.17-2.76-0.38L39.37,63.56l8.97-13.45h16.9c0.1,0.14,0.18,0.26,0.28,0.4l0.29,0.38
			c0.83,1.1,1.87,2.46,1.87,7.11C67.67,62.93,63.89,70.61,60.24,75.18L60.24,75.18z"/>
	</g>
</g>
<g id="Layer_2" class="st0">
	<g id="Component_2_1" transform="translate(317.73 0.22)" class="st1">
		<path id="Path_3" d="M-274.59,24.19c0-2.84-2.3-5.14-5.14-5.14h-25.71c-0.74,0-1.39,0.47-1.62,1.17l-5.14,15.43
			c-0.19,0.61-0.04,1.27,0.39,1.73c0.87,1.13,1.31,2.53,1.23,3.95c-0.16,1.64-0.62,3.23-1.38,4.69c-1.59,3.83-3.78,9.07-3.76,19.32
			c0.01,2.83,2.31,5.12,5.14,5.11h5.19l0,0c2.81,0.02,5.11-2.24,5.13-5.05c0-21.77,6.85-26.28,10.91-27.03l10.45-1.74
			c2.48-0.41,4.31-2.55,4.3-5.07L-274.59,24.19z M-283.16,33.88l-6.77,1.13c-5.13,0.94-13.74,6.15-13.74,30.4
			c-0.03,0.91-0.79,1.64-1.71,1.62h-5.2c-0.94,0-1.7-0.75-1.71-1.69c-0.01-9.57,2.02-14.44,3.5-18c0.95-1.87,1.5-3.92,1.64-6.01
			c0.04-1.93-0.49-3.83-1.51-5.46l4.46-13.4h21.04L-283.16,33.88z M-278.02,31.57c0,0.84-0.6,1.55-1.43,1.69l-0.28,0.05V22.48
			c0.95,0,1.71,0.77,1.71,1.72L-278.02,31.57z"/>
		<path id="Path_4" d="M-298.58,31.04c0.95,0,1.71-0.77,1.71-1.71c0-0.95-0.77-1.71-1.71-1.71c-0.95,0-1.71,0.77-1.71,1.71
			C-300.3,30.28-299.53,31.04-298.58,31.04z"/>
		<path id="Path_5" d="M-291.73,31.04c0.95,0,1.71-0.77,1.71-1.71c0-0.95-0.77-1.71-1.71-1.71c-0.95,0-1.71,0.77-1.71,1.71
			C-293.44,30.27-292.67,31.04-291.73,31.04C-291.73,31.04-291.73,31.04-291.73,31.04z"/>
		<path id="Path_6" d="M-231.74,1.91h-25.29c-3.84-0.1-7.05,2.88-7.24,6.72c-0.23,2.12,0.54,4.22,2.09,5.68
			c-4.64,5.15-7.22,11.83-7.27,18.76c0.06,1.19,0.36,2.35,0.88,3.41c1,2.41,2.14,5.15-4.04,12.49c-1.29,1.23-2,2.93-1.98,4.71
			c0.01,2.12,1.27,4.04,3.21,4.89c1.2,0.48,2.47,0.79,3.75,0.92c-0.14,0.38-0.31,0.75-0.49,1.11c-0.59,1.03-0.72,2.27-0.36,3.41
			c0.24,0.63,0.66,1.18,1.22,1.56c-0.13,0.54-0.14,1.1-0.02,1.63c0.33,1.13,1.11,2.08,2.14,2.63c0.29,0.18,0.56,0.39,0.8,0.63
			c0.22,0.98,0.26,1.99,0.11,2.98c-0.05,0.74-0.1,1.54-0.1,2.43c0,3.89,3.38,6.6,8.21,6.6c3.02,0,9.91-2.04,13.07-3.02l2.83,7.09
			c0.35,0.88,1.35,1.31,2.23,0.96s1.31-1.35,0.96-2.23l-3.43-8.57c-0.33-0.84-1.26-1.28-2.12-0.99c-2.85,0.93-10.82,3.34-13.54,3.34
			c-2.38,0-4.79-0.98-4.79-3.17c0-0.8,0.05-1.53,0.09-2.2c0.2-1.45,0.1-2.92-0.3-4.33c-0.43-0.99-1.17-1.81-2.11-2.34
			c-0.27-0.18-0.67-0.46-0.72-0.49c-0.03-0.07-0.01-0.16,0.05-0.21c0.8-0.5,1.05-1.56,0.54-2.37c-0.18-0.28-0.43-0.5-0.73-0.64
			c0,0-0.44-0.21-1.2-0.46c0-0.23,0.06-0.46,0.18-0.65c0.63-1.24,1.08-2.56,1.33-3.92c0.15-0.93-0.49-1.81-1.43-1.96
			c-0.06-0.01-0.12-0.02-0.17-0.02c-1.57-0.05-3.12-0.33-4.61-0.81c-0.73-0.29-1.22-0.99-1.23-1.78c0-1.1,0.25-1.4,1.23-2.57
			c6.91-8.2,6.08-12.22,4.53-15.95c-0.33-0.65-0.54-1.36-0.62-2.09c0.06-6.51,2.65-12.73,7.22-17.37c3.66,0.54,8.75,1.14,11.4,1.44
			l-0.62,4.38c-0.54,3.75,2.07,7.22,5.82,7.76c0.32,0.05,0.64,0.07,0.97,0.07h2.64c1.89,0,3.43,1.53,3.43,3.43v3.43
			c0,0.95,0.77,1.71,1.71,1.71s1.71-0.77,1.71-1.71v-3.43c0-3.78-3.07-6.85-6.86-6.85h-2.64c-1.89,0-3.43-1.54-3.43-3.43
			c0-0.16,0.01-0.32,0.03-0.48l0.88-6.13c0.13-0.94-0.52-1.81-1.46-1.94c-0.02,0-0.04,0-0.06-0.01c-0.08-0.01-8.58-0.93-13.6-1.7
			c-0.07-0.02-0.15-0.05-0.22-0.06c-1.29-0.33-1.86-1.85-1.76-3.27c0.05-2.02,1.73-3.61,3.75-3.55c0.02,0,0.05,0,0.07,0h25.28
			c0.95,0,1.72-0.76,1.72-1.71C-230.04,2.67-230.8,1.91-231.74,1.91c-0.01,0-0.01,0-0.01,0L-231.74,1.91z"/>
	</g>
</g>
<g id="Layer_3" class="st0">
	<g id="Component_3_1" transform="translate(625.981 0.149)" class="st1">
		<path id="Path_7" d="M-575.95,15.65c0.95,0,1.72-0.77,1.72-1.72V7.06c0-2.85-2.31-5.15-5.16-5.15h-18.35
			c-1.74,0-3.46,0.38-5.04,1.11l-20.28,9.36c-0.86,0.4-1.24,1.42-0.84,2.28c0.4,0.86,1.42,1.24,2.28,0.84l0,0l20.28-9.36
			c1.13-0.52,2.36-0.79,3.6-0.79h18.35c0.95,0,1.72,0.77,1.72,1.72v5.15H-600c-0.25,0-0.49,0.05-0.72,0.16l-22.33,10.31
			c-0.86,0.4-1.24,1.42-0.84,2.28c0.4,0.86,1.42,1.24,2.28,0.84l21.99-10.15L-575.95,15.65z"/>
		<path id="Path_8" d="M-598.28,25.96v18.9c0,0.95,0.77,1.72,1.72,1.72c0.95,0,1.72-0.77,1.72-1.72l0,0v-18.9
			c0-0.95-0.77-1.72-1.72-1.72C-597.51,24.24-598.28,25.01-598.28,25.96z"/>
		<path id="Path_9" d="M-591.41,25.96V39.7c0,0.95,0.77,1.72,1.72,1.72c0.95,0,1.72-0.77,1.72-1.72V25.96
			c0-0.95-0.77-1.72-1.72-1.72C-590.64,24.24-591.41,25.01-591.41,25.96z"/>
		<path id="Path_10" d="M-584.54,25.96v6.87c0,0.95,0.77,1.72,1.72,1.72c0.95,0,1.72-0.77,1.72-1.72l0,0v-6.87
			c0-0.95-0.77-1.72-1.72-1.72C-583.77,24.24-584.54,25.01-584.54,25.96z"/>
		<path id="Path_11" d="M-539.87,72.34h-8.98c-1.09,0-2.18,0.21-3.19,0.61l-4.29,1.72c-1.83,0.73-3.77,1.1-5.74,1.1h-29.15
			c-0.88,0.03-1.66-0.56-1.88-1.42c-0.16-0.94,0.46-1.83,1.4-1.99c0.1-0.02,0.2-0.03,0.29-0.03h15.46c0.95,0,1.72-0.77,1.72-1.72
			c0-0.95-0.77-1.72-1.72-1.72H-600c-0.95,0-1.72-0.77-1.72-1.72c0-0.95,0.77-1.72,1.72-1.72h22.33c0.95,0,1.72-0.77,1.72-1.72
			c0-0.95-0.77-1.72-1.72-1.72l0,0h-25.77c-0.95,0-1.72-0.77-1.72-1.72c0-0.95,0.77-1.72,1.72-1.72h25.77
			c0.95,0,1.72-0.77,1.72-1.72c0-0.95-0.77-1.72-1.72-1.72h-22.33l0,0c-0.95,0-1.72-0.76-1.72-1.71c0-0.95,0.76-1.72,1.71-1.72
			c0,0,0.01,0,0.01,0h30.92c0.15,0,0.3-0.02,0.45-0.07c0.03-0.01,0.06-0.02,0.09-0.03c0.14-0.04,0.28-0.11,0.4-0.19h0.01
			c0.12-0.08,0.24-0.19,0.34-0.3l0.07-0.08c0.1-0.12,0.17-0.25,0.23-0.39l0.01-0.01c0.02-0.05,0.03-0.09,0.04-0.14
			s0.04-0.11,0.05-0.17c0.02-0.09,0.03-0.17,0.03-0.26c0-0.02,0.01-0.05,0.01-0.07V50c0-0.11-0.01-0.22-0.03-0.33v-0.02
			c-0.1-0.49-0.41-0.91-0.85-1.15c-0.06-0.03-0.11-0.06-0.17-0.09l-0.01-0.01l-13.4-5.43c-0.74-0.35-1.14-1.18-0.95-1.98
			c0.15-0.62,0.63-1.1,1.25-1.26c0.68-0.05,1.37,0.08,1.99,0.36c3.69,1.49,10.46,2.5,13.88,2.86c0.77,0.08,1.52,0.34,2.18,0.76
			l0.39,0.24l0.02,0.01l10.31,6.44c1.36,0.86,2.94,1.31,4.55,1.31h8.34c0.95,0,1.72-0.77,1.71-1.72c0-0.95-0.77-1.71-1.71-1.71
			h-8.34c-0.97,0-1.91-0.27-2.73-0.78l-3.71-2.32c0.89-0.07,1.75-0.28,2.57-0.63l12.83-4.98c0.87-0.38,1.27-1.39,0.88-2.26
			c-0.36-0.82-1.28-1.23-2.13-0.94l-12.88,5c-0.89,0.38-1.87,0.5-2.82,0.35l-5.36-0.85l-0.1-0.06c-1.1-0.69-2.34-1.12-3.64-1.26
			c-4.21-0.45-10.05-1.46-12.95-2.63c-1.27-0.55-2.66-0.74-4.03-0.53c-2.75,0.62-4.48,3.36-3.86,6.12c0.01,0.06,0.03,0.12,0.04,0.17
			c-1.17,0.06-2.3,0.42-3.29,1.05c-1.44,1.06-2.23,2.78-2.1,4.55H-600c-2.84,0-5.15,2.3-5.15,5.14c0,0.66,0.12,1.31,0.37,1.92
			c-2.74,0.74-4.37,3.57-3.63,6.31c0.48,1.77,1.86,3.15,3.63,3.63c-0.79,1.98-0.28,4.25,1.3,5.68c-2.1,1.9-2.25,5.15-0.35,7.24
			c1.15,1.26,2.85,1.88,4.54,1.63c0.06,2.84,2.42,5.1,5.26,5.04c0.65-0.01,1.3-0.15,1.9-0.41l3.44-1.46
			c0.15,2.73,2.44,4.86,5.18,4.79c0.74,0,1.46-0.15,2.14-0.43l19.21-8.15h0.09c2.4,0,4.79-0.46,7.02-1.35l4.29-1.72
			c0.61-0.24,1.26-0.37,1.91-0.37h8.98c0.95,0,1.72-0.77,1.72-1.72C-538.15,73.12-538.92,72.35-539.87,72.34L-539.87,72.34
			L-539.87,72.34z M-588.03,48.17c-0.11-0.63,0.15-1.27,0.66-1.65c0.61-0.31,1.29-0.46,1.97-0.44c0.55-0.01,1.2-0.06,1.89-0.13
			c0.1,0.06,0.2,0.12,0.31,0.17l5.32,2.16H-588C-588.01,48.25-588.03,48.22-588.03,48.17z M-601.58,75.41
			c-0.37-0.87,0.04-1.88,0.91-2.25c0,0,0,0,0,0l1.92-0.82h2.48c-0.29,0.82-0.37,1.71-0.23,2.57c0.01,0.06,0.04,0.12,0.05,0.18
			l-2.88,1.23C-600.2,76.7-601.21,76.29-601.58,75.41C-601.58,75.41-601.58,75.41-601.58,75.41L-601.58,75.41z M-593.48,81.31
			c-0.86,0.39-1.88,0.01-2.28-0.85c-0.39-0.86-0.01-1.88,0.85-2.28c0.03-0.01,0.05-0.02,0.08-0.03l0.23-0.1
			c0.96,0.75,2.15,1.16,3.37,1.17h2.67L-593.48,81.31z M-582.72,84.21c-0.8,0.37-1.75,0.13-2.28-0.57c-0.52-0.8-0.29-1.86,0.5-2.38
			c0.08-0.05,0.17-0.1,0.27-0.14l0,0l4.47-1.9h8.79L-582.72,84.21z"/>
	</g>
</g>
<g id="Layer_4" class="st0">
	<g id="Component_4_1" transform="translate(0 268.48)" class="st1">
		<path id="Path_12" d="M87.79-262.96v-3.43c-4.74,0.01-8.58,3.85-8.59,8.59c0,5.88,3.69,10.31,8.59,10.31v-3.44
			c-2.98,0-5.15-2.89-5.15-6.87C82.64-260.65,84.95-262.95,87.79-262.96z"/>
		<path id="Path_13" d="M84.36-183.93h-3.44v-30.92c0-0.95-0.77-1.72-1.72-1.72c-1.9,0-3.43-1.54-3.44-3.44v-20.26
			c0-0.67,0.39-1.28,0.99-1.56c3.45-1.51,7.19-2.27,10.96-2.23v-3.43c-4.25-0.04-8.47,0.83-12.37,2.53
			c-1.84,0.83-3.02,2.67-3.02,4.69v20.26c0,3.13,2.12,5.87,5.15,6.65v31.14c0,0.95,0.77,1.72,1.71,1.72c0,0,0,0,0,0h8.59v-36.08
			h-3.44L84.36-183.93z"/>
		<path id="Path_14" d="M17.36-247.49c4.9,0,8.59-4.43,8.59-10.31c0-4.74-3.85-8.59-8.59-8.59c-4.74,0-8.59,3.85-8.59,8.59
			C8.77-251.93,12.46-247.49,17.36-247.49z M17.36-262.96c2.85,0,5.15,2.31,5.15,5.15c0,3.98-2.17,6.87-5.15,6.87
			s-5.15-2.89-5.15-6.87C12.21-260.65,14.51-262.95,17.36-262.96L17.36-262.96z"/>
		<path id="Path_15" d="M38.69-232.04l3.94-3.94c0.66-0.68,0.65-1.77-0.02-2.43c-0.67-0.65-1.74-0.65-2.4,0l-5.15,5.15
			c-0.67,0.67-0.67,1.76,0,2.43c0,0,0,0,0,0l5.15,5.15c0.66,0.69,1.74,0.71,2.43,0.06s0.71-1.74,0.06-2.43
			c-0.02-0.02-0.04-0.04-0.06-0.06L38.69-232.04z"/>
		<path id="Path_16" d="M29.77-244.95c-3.94-1.71-8.19-2.57-12.49-2.54c-4.26-0.04-8.47,0.83-12.37,2.53
			c-1.84,0.84-3.02,2.67-3.02,4.69v20.26c0,3.13,2.12,5.87,5.15,6.65v31.14c0,0.95,0.77,1.72,1.72,1.72h17.18
			c0.95,0,1.72-0.77,1.72-1.72v-31.14c3.03-0.79,5.15-3.52,5.15-6.65v-20.24C32.83-242.28,31.63-244.13,29.77-244.95z M29.39-220.01
			c0,1.9-1.54,3.43-3.44,3.44c-0.95,0-1.72,0.77-1.72,1.72c0,0,0,0,0,0v30.92h-5.15v-32.64h-3.44v32.64h-5.15v-30.92
			c0-0.95-0.77-1.72-1.72-1.72c0,0,0,0,0,0c-1.9,0-3.43-1.54-3.44-3.44v-20.26c-0.01-0.67,0.38-1.28,0.99-1.56
			c3.45-1.51,7.19-2.27,10.96-2.23c3.81-0.03,7.59,0.73,11.1,2.25c0.61,0.28,1.01,0.89,1,1.56L29.39-220.01z"/>
		<path id="Path_17" d="M64.96-238.4c-0.67-0.67-1.76-0.67-2.43,0s-0.67,1.76,0,2.43l3.94,3.94l-3.94,3.94
			c-0.66,0.68-0.65,1.77,0.03,2.43c0.67,0.65,1.74,0.65,2.4,0l5.15-5.15c0.67-0.67,0.67-1.76,0-2.43c0,0,0,0,0,0L64.96-238.4z"/>
		<path id="Path_18" d="M44.85-233.75c-0.95,0-1.72,0.77-1.72,1.72s0.77,1.72,1.72,1.72s1.72-0.77,1.72-1.72v0
			C46.56-232.98,45.8-233.75,44.85-233.75z"/>
		<path id="Path_19" d="M50-233.75c-0.95,0-1.72,0.77-1.72,1.72s0.77,1.72,1.72,1.72c0.95,0,1.72-0.77,1.72-1.72
			C51.72-232.98,50.95-233.75,50-233.75z"/>
		<path id="Path_20" d="M60.31-233.75c-0.95,0-1.72,0.77-1.72,1.72s0.77,1.72,1.72,1.72c0.95,0,1.72-0.77,1.72-1.72
			C62.03-232.98,61.26-233.75,60.31-233.75z"/>
		<path id="Path_21" d="M55.15-233.75c-0.95,0-1.72,0.77-1.72,1.72s0.77,1.72,1.72,1.72c0.95,0,1.72-0.77,1.72-1.72
			C56.87-232.98,56.1-233.75,55.15-233.75z"/>
	</g>
</g>
<g id="Layer_5" class="st0">
	<g id="Component_5_1" transform="translate(318.456 264.952)" class="st1">
		<path id="Path_22" d="M-230.77-178.95l-2.26-15.8c-0.8-5.66-4.66-10.41-10.04-12.33l-10.84-4.14c0.52-1.26,0.82-2.61,0.88-3.98
			c0.08-1.27-0.36-2.51-1.23-3.44c-1.05-0.89-2.41-1.32-3.77-1.19l-0.14,1.71l0.16,1.71c0.43,0,1.14,0,1.34,0.2
			c0.18,0.31,0.26,0.66,0.21,1.01c-0.05,0.95-0.26,1.89-0.63,2.76l-4.51-1.72v-6.23c4.21-3.82,6.69-9.19,6.86-14.87v-8.57
			c0.11-10.41-8.25-18.94-18.66-19.04c-10.41-0.11-18.94,8.25-19.04,18.66c0,0.13,0,0.26,0,0.39v8.57
			c0.17,5.68,2.64,11.05,6.86,14.87v6.23l-4.51,1.72c-0.37-0.88-0.58-1.81-0.63-2.76c-0.04-0.35,0.03-0.71,0.22-1.01
			c0.2-0.2,0.92-0.19,1.5-0.2c0.91-0.01,1.65-0.75,1.64-1.66c0-0.02,0-0.03,0-0.05c-0.03-0.96-0.82-1.72-1.78-1.72
			c-1.37-0.12-2.72,0.31-3.77,1.19c-0.86,0.93-1.3,2.17-1.23,3.44c0.06,1.37,0.36,2.71,0.88,3.98l-10.81,4.13
			c-5.4,1.92-9.28,6.68-10.08,12.35l-2.26,15.8c-0.15,0.93,0.49,1.81,1.42,1.96c0.93,0.15,1.81-0.49,1.96-1.42
			c0-0.02,0-0.03,0.01-0.05l2.26-15.8c0.63-4.42,3.66-8.13,7.88-9.62l11.06-4.22c3.55,6.62,10.56,14.2,16.53,15.49v7.05
			c0.01,4.73,3.84,8.56,8.57,8.57h12c4.73-0.01,8.56-3.84,8.57-8.57v-2.01c2.68-0.95,4.08-3.88,3.14-6.56s-3.88-4.08-6.56-3.14
			c-2.68,0.95-4.08,3.88-3.14,6.56c0.52,1.47,1.67,2.62,3.14,3.14v2.01c0,2.84-2.3,5.14-5.14,5.14h-12c-2.84,0-5.14-2.3-5.14-5.14
			v-7.05c5.98-1.3,12.98-8.88,16.53-15.49l11.09,4.23c4.2,1.49,7.22,5.19,7.84,9.6l2.26,15.8c0.12,0.84,0.84,1.47,1.69,1.47
			c0.08,0,0.16-0.01,0.25-0.02C-231.29-177.15-230.64-178.02-230.77-178.95z M-247.89-194.13c0.95,0,1.71,0.77,1.71,1.71
			s-0.77,1.71-1.71,1.71l0,0c-0.95,0-1.71-0.77-1.71-1.71S-248.84-194.13-247.89-194.13z M-273.59-259.26
			c7.56,0.02,13.99,5.5,15.2,12.96c-2.95-0.95-5.51-2.81-7.32-5.33c-0.27-0.38-0.68-0.63-1.14-0.7c-0.46-0.07-0.93,0.05-1.3,0.34
			c-4.83,3.75-12.49,6.09-20.76,6.39C-288.02-253.37-281.43-259.25-273.59-259.26z M-273.59-195.85c-4.72,0-11.59-7.42-15.02-13.49
			l5.35-2.04c0.66-0.25,1.1-0.89,1.1-1.6v-8.16c0-0.49-0.21-0.95-0.57-1.27c-4-3.59-6.29-8.27-6.29-12.84v-6.88
			c8.43-0.26,16.13-2.45,21.6-6.13c2.43,2.78,5.66,4.75,9.25,5.61v7.4c0,4.57-2.29,9.25-6.29,12.84c-0.36,0.32-0.57,0.79-0.57,1.27
			v8.16c0,0.71,0.44,1.35,1.1,1.6l5.35,2.04C-262.01-203.27-268.88-195.85-273.59-195.85L-273.59-195.85z"/>
	</g>
</g>
<g id="Layer_6">
	<g id="Component_6_1" transform="translate(627.55 265.1)">
		<path id="Path_23" d="M-596.47-252.75c-0.95,0-1.72,0.77-1.72,1.72s0.77,1.72,1.72,1.72c0.95,0,1.72-0.77,1.72-1.72
			C-594.74-251.98-595.51-252.75-596.47-252.75C-596.46-252.75-596.46-252.75-596.47-252.75z"/>
		<path id="Path_24" d="M-603.35-256.19c-0.95,0-1.72,0.77-1.72,1.72c0,0.95,0.77,1.72,1.72,1.72s1.72-0.77,1.72-1.72c0,0,0,0,0,0
			C-601.63-255.42-602.4-256.19-603.35-256.19z"/>
		<path id="Path_25" d="M-610.23-252.75c-0.95,0-1.72,0.77-1.72,1.72s0.77,1.72,1.72,1.72c0.95,0,1.72-0.77,1.72-1.72
			C-608.5-251.98-609.27-252.75-610.23-252.75C-610.22-252.75-610.23-252.75-610.23-252.75z"/>
		<path id="Path_26" d="M-610.23-259.63c-0.95,0-1.72,0.77-1.72,1.72s0.77,1.72,1.72,1.72c0.95,0,1.72-0.77,1.72-1.72
			C-608.5-258.86-609.27-259.63-610.23-259.63C-610.22-259.63-610.23-259.63-610.23-259.63z"/>
		<path id="Path_27" d="M-610.23-245.87c-0.95,0-1.72,0.77-1.72,1.72s0.77,1.72,1.72,1.72c0.95,0,1.72-0.77,1.72-1.72
			C-608.5-245.09-609.27-245.86-610.23-245.87C-610.22-245.87-610.23-245.87-610.23-245.87z"/>
		<path id="Path_28" d="M-603.35-249.31c-0.95,0-1.72,0.77-1.72,1.72c0,0.95,0.77,1.72,1.72,1.72s1.72-0.77,1.72-1.72c0,0,0,0,0,0
			C-601.63-248.54-602.4-249.31-603.35-249.31z"/>
		<path id="Path_29" d="M-617.11-263.07c-0.95,0-1.72,0.77-1.72,1.72c0,0.95,0.77,1.72,1.72,1.72s1.72-0.77,1.72-1.72l0,0
			C-615.39-262.3-616.16-263.07-617.11-263.07z"/>
		<path id="Path_30" d="M-617.11-256.19c-0.95,0-1.72,0.77-1.72,1.72c0,0.95,0.77,1.72,1.72,1.72s1.72-0.77,1.72-1.72c0,0,0,0,0,0
			C-615.39-255.42-616.16-256.19-617.11-256.19z"/>
		<path id="Path_31" d="M-617.11-249.31c-0.95,0-1.72,0.77-1.72,1.72c0,0.95,0.77,1.72,1.72,1.72s1.72-0.77,1.72-1.72c0,0,0,0,0,0
			C-615.39-248.54-616.16-249.31-617.11-249.31z"/>
		<path id="Path_32" d="M-617.11-242.42c-0.95,0-1.72,0.77-1.72,1.72c0,0.95,0.77,1.72,1.72,1.72s1.72-0.77,1.72-1.72l0,0
			C-615.39-241.65-616.16-242.42-617.11-242.42z"/>
		<path id="Path_33" d="M-558.62-206.3h-5.16v-5.16c0-0.95-0.77-1.72-1.72-1.72c0,0,0,0,0,0h-5.16c-0.95,0-1.72,0.77-1.72,1.72v5.16
			h-5.16c-0.95,0-1.72,0.77-1.72,1.72c0,0,0,0,0,0v5.16c0,0.95,0.77,1.72,1.72,1.72c0,0,0,0,0,0h5.16v5.16
			c0,0.95,0.77,1.72,1.72,1.72h5.16c0.95,0,1.72-0.77,1.72-1.72c0,0,0,0,0,0v-5.16h5.16c0.95,0,1.72-0.77,1.72-1.71c0,0,0,0,0,0
			v-5.16C-556.9-205.53-557.66-206.3-558.62-206.3C-558.62-206.3-558.62-206.3-558.62-206.3z M-560.34-201.14h-5.16
			c-0.95,0-1.72,0.77-1.72,1.72c0,0,0,0,0,0v5.16h-1.72v-5.16c0-0.95-0.77-1.72-1.72-1.72c0,0,0,0,0,0h-5.16v-1.72h5.16
			c0.95,0,1.72-0.77,1.72-1.72c0,0,0,0,0,0v-5.16h1.72v5.16c0,0.95,0.77,1.72,1.72,1.72c0,0,0,0,0,0h5.16L-560.34-201.14z"/>
		<path id="Path_34" d="M-554.28-217.72c-3.11-4.73-6.06-9.19-6.06-14.38v-4.3c0-0.79-0.23-1.57-0.65-2.25l6.7-4.02
			c0.52-0.31,0.84-0.87,0.84-1.47c0-7.99-4.05-12.04-12.04-12.04h-24.08c-0.95,0-1.72,0.77-1.72,1.72v6.88
			c0,0.95,0.77,1.72,1.72,1.72h6.77c-0.26,2.49-1.2,7.47-4.55,10.82c-0.69,0.65-0.72,1.74-0.06,2.43c0.65,0.69,1.74,0.72,2.43,0.06
			c0.02-0.02,0.04-0.04,0.06-0.06c3.89-3.89,5.11-9.34,5.49-12.43c1.97,1.07,3.3,3.03,3.57,5.26c-1.05,0.81-1.66,2.05-1.67,3.38v4.3
			l0,0c0,5.19-2.94,9.66-6.06,14.39c-3.61,5.48-7.7,11.69-7.7,20.02c0,12.47,5.28,19.66,5.5,19.95c0.32,0.43,0.83,0.69,1.38,0.69
			h30.96c0.54,0,1.05-0.26,1.38-0.69c0.22-0.3,5.5-7.48,5.5-19.95C-546.58-206.03-550.67-212.24-554.28-217.72z M-574.1-236.41
			c0-0.47,0.39-0.86,0.86-0.86h8.6c0.47,0,0.86,0.39,0.86,0.86v2.58h-10.32V-236.41z M-587.87-252.75h1.72v3.44h-1.72V-252.75z
			 M-580.63-249.1h-0.03c-0.67-0.14-1.36-0.21-2.04-0.21v-3.45h17.2c5.78,0,8.32,2.23,8.58,7.64l-7.39,4.43
			c-0.11-0.01-0.22-0.03-0.33-0.03h-7.9C-573.25-244.9-576.46-248.23-580.63-249.1L-580.63-249.1z M-554.39-180.5h-29.11
			c-2.97-5.24-4.48-11.18-4.37-17.2c0-7.29,3.63-12.8,7.14-18.12c2.95-4.48,5.99-9.1,6.53-14.56h10.51
			c0.54,5.46,3.58,10.08,6.53,14.56c3.51,5.32,7.14,10.83,7.14,18.12C-549.91-191.68-551.42-185.74-554.39-180.5L-554.39-180.5z"/>
	</g>
</g>
</svg>
