<?xml version="1.0" encoding="utf-8"?>
<!-- Generator: Adobe Illustrator 24.1.2, SVG Export Plug-In . SVG Version: 6.00 Build 0)  -->
<svg version="1.1" xmlns="http://www.w3.org/2000/svg" xmlns:xlink="http://www.w3.org/1999/xlink" x="0px" y="0px"
	 viewBox="0 0 90 90" style="enable-background:new 0 0 90 90;" xml:space="preserve">
<style type="text/css">
	.st0{display:none;}
	.st1{display:inline;}
</style>
<g id="Layer_1" class="st0">
	<g id="Component_1_1" transform="translate(10.905)" class="st1">
		<path id="Path_1" d="M68.49,48.85l-0.24-0.33c-5.02-6.94-4.04-9.32-3.1-11.62c0.51-1.05,0.79-2.2,0.84-3.37
			c-0.04-6.82-2.58-13.39-7.14-18.46c1.52-1.44,2.27-3.5,2.05-5.58c-0.18-3.77-3.35-6.71-7.12-6.61H28.88
			c-19.46,0-32.04,12.2-32.04,31.09c0,9.88,4.26,17.88,7.68,24.3c2.21,4.16,4.13,7.75,4.13,10.5c0,2.66-2.37,10.16-3.28,12.82
			c-0.3,0.88,0.17,1.84,1.05,2.14s1.84-0.17,2.14-1.05l0,0c0.36-1.04,3.46-10.21,3.46-13.91c0-0.43-0.03-0.87-0.09-1.3l4.8-6.23
			c0.57-0.74,0.43-1.8-0.31-2.37c-0.74-0.57-1.8-0.43-2.37,0.31l-3.26,4.24c-0.98-2.3-2.08-4.55-3.3-6.73
			C4.25,50.6,0.21,43.02,0.21,33.98c0-17.1,10.98-27.72,28.67-27.72h24.88c1.98-0.09,3.66,1.44,3.76,3.42c0,0.02,0,0.05,0,0.07
			c0.11,1.46-0.51,3.06-1.91,3.27c-4.93,0.76-13.33,1.67-13.42,1.68c-0.93,0.1-1.6,0.93-1.5,1.86c0,0.02,0,0.04,0.01,0.06l0.86,6.03
			c0.26,1.84-1.02,3.55-2.86,3.82c-0.16,0.02-0.32,0.03-0.48,0.03h-2.6c-3.72,0-6.74,3.02-6.74,6.75c0,0.93,0.75,1.69,1.69,1.69
			s1.69-0.75,1.69-1.69c0-1.86,1.51-3.37,3.37-3.37h2.6c3.73,0,6.75-3.02,6.74-6.75c0-0.32-0.02-0.64-0.07-0.95l-0.61-4.31
			c2.61-0.3,7.63-0.88,11.23-1.42c4.49,4.56,7.03,10.69,7.09,17.09c-0.06,0.73-0.26,1.44-0.59,2.09c-1.13,2.79-1.85,5.78,1.08,11.1
			H47.83l-20.6-10.3c-1.58-2.03-4.21-3.19-7.62-3.19c-6.09,0-9.27,4.24-9.27,8.43c0,4.3,1.53,6.65,3.16,9.14
			c0.27,0.4,0.54,0.82,0.82,1.27c1.96,3.12,4.41,6.46,8.67,6.46c0.59,0,1.18-0.07,1.76-0.21l11.42,6.55l8.85,12.26
			c-2.22-0.62-4.3-1.27-5.49-1.65c-0.88-0.29-1.84,0.19-2.13,1.08c-0.02,0.06-0.04,0.13-0.05,0.19l-1.69,8.43
			c-0.16,0.92,0.45,1.79,1.37,1.95c0.89,0.16,1.74-0.41,1.94-1.29l1.32-6.59c2.07,0.64,5.48,1.65,8.42,2.29h0.02
			c1.35,0.33,2.73,0.53,4.12,0.59c3.94,0.13,7.69-1.69,10.04-4.86c3.95-4.96,8.16-13.4,8.16-19.28
			C71.04,52.21,69.5,50.19,68.49,48.85z M17.16,50.28c-0.29-0.46-0.57-0.9-0.85-1.32c-1.57-2.41-2.61-4-2.61-7.29
			c0-2.52,1.83-5.06,5.9-5.06c2.44,0,4.13,0.66,5.06,1.98c0.01,0.01,0.02,0.02,0.02,0.04c0.58,0.91,0.86,1.97,0.82,3.04
			c0,0.93,0.75,1.69,1.69,1.69s1.69-0.75,1.69-1.69c0-0.22-0.02-0.44-0.03-0.66l16.11,8.06l-8.18,12.28l-8.89-5.09
			c0.58-0.79,0.92-1.73,0.98-2.71c0.04-0.93-0.68-1.72-1.61-1.76c-0.91-0.06-1.7,0.64-1.75,1.55c0,0.01,0,0.02,0,0.03
			c-0.05,0.54-0.39,1.79-2.53,1.79C20.67,55.16,19.1,53.37,17.16,50.28z M60.24,75.18c-1.7,2.37-4.49,3.72-7.4,3.59
			c-0.93-0.04-1.85-0.17-2.76-0.38L39.37,63.56l8.97-13.45h16.9c0.1,0.14,0.18,0.26,0.28,0.4l0.29,0.38
			c0.83,1.1,1.87,2.46,1.87,7.11C67.67,62.93,63.89,70.61,60.24,75.18L60.24,75.18z"/>
	</g>
</g>
<g id="Layer_2">
	<g id="Component_2_1" transform="translate(317.73 0.22)">
		<path id="Path_3" d="M-274.59,24.19c0-2.84-2.3-5.14-5.14-5.14h-25.71c-0.74,0-1.39,0.47-1.62,1.17l-5.14,15.43
			c-0.19,0.61-0.04,1.27,0.39,1.73c0.87,1.13,1.31,2.53,1.23,3.95c-0.16,1.64-0.62,3.23-1.38,4.69c-1.59,3.83-3.78,9.07-3.76,19.32
			c0.01,2.83,2.31,5.12,5.14,5.11h5.19l0,0c2.81,0.02,5.11-2.24,5.13-5.05c0-21.77,6.85-26.28,10.91-27.03l10.45-1.74
			c2.48-0.41,4.31-2.55,4.3-5.07L-274.59,24.19z M-283.16,33.88l-6.77,1.13c-5.13,0.94-13.74,6.15-13.74,30.4
			c-0.03,0.91-0.79,1.64-1.71,1.62h-5.2c-0.94,0-1.7-0.75-1.71-1.69c-0.01-9.57,2.02-14.44,3.5-18c0.95-1.87,1.5-3.92,1.64-6.01
			c0.04-1.93-0.49-3.83-1.51-5.46l4.46-13.4h21.04L-283.16,33.88z M-278.02,31.57c0,0.84-0.6,1.55-1.43,1.69l-0.28,0.05V22.48
			c0.95,0,1.71,0.77,1.71,1.72L-278.02,31.57z"/>
		<path id="Path_4" d="M-298.58,31.04c0.95,0,1.71-0.77,1.71-1.71c0-0.95-0.77-1.71-1.71-1.71c-0.95,0-1.71,0.77-1.71,1.71
			C-300.3,30.28-299.53,31.04-298.58,31.04z"/>
		<path id="Path_5" d="M-291.73,31.04c0.95,0,1.71-0.77,1.71-1.71c0-0.95-0.77-1.71-1.71-1.71c-0.95,0-1.71,0.77-1.71,1.71
			C-293.44,30.27-292.67,31.04-291.73,31.04C-291.73,31.04-291.73,31.04-291.73,31.04z"/>
		<path id="Path_6" d="M-231.74,1.91h-25.29c-3.84-0.1-7.05,2.88-7.24,6.72c-0.23,2.12,0.54,4.22,2.09,5.68
			c-4.64,5.15-7.22,11.83-7.27,18.76c0.06,1.19,0.36,2.35,0.88,3.41c1,2.41,2.14,5.15-4.04,12.49c-1.29,1.23-2,2.93-1.98,4.71
			c0.01,2.12,1.27,4.04,3.21,4.89c1.2,0.48,2.47,0.79,3.75,0.92c-0.14,0.38-0.31,0.75-0.49,1.11c-0.59,1.03-0.72,2.27-0.36,3.41
			c0.24,0.63,0.66,1.18,1.22,1.56c-0.13,0.54-0.14,1.1-0.02,1.63c0.33,1.13,1.11,2.08,2.14,2.63c0.29,0.18,0.56,0.39,0.8,0.63
			c0.22,0.98,0.26,1.99,0.11,2.98c-0.05,0.74-0.1,1.54-0.1,2.43c0,3.89,3.38,6.6,8.21,6.6c3.02,0,9.91-2.04,13.07-3.02l2.83,7.09
			c0.35,0.88,1.35,1.31,2.23,0.96s1.31-1.35,0.96-2.23l-3.43-8.57c-0.33-0.84-1.26-1.28-2.12-0.99c-2.85,0.93-10.82,3.34-13.54,3.34
			c-2.38,0-4.79-0.98-4.79-3.17c0-0.8,0.05-1.53,0.09-2.2c0.2-1.45,0.1-2.92-0.3-4.33c-0.43-0.99-1.17-1.81-2.11-2.34
			c-0.27-0.18-0.67-0.46-0.72-0.49c-0.03-0.07-0.01-0.16,0.05-0.21c0.8-0.5,1.05-1.56,0.54-2.37c-0.18-0.28-0.43-0.5-0.73-0.64
			c0,0-0.44-0.21-1.2-0.46c0-0.23,0.06-0.46,0.18-0.65c0.63-1.24,1.08-2.56,1.33-3.92c0.15-0.93-0.49-1.81-1.43-1.96
			c-0.06-0.01-0.12-0.02-0.17-0.02c-1.57-0.05-3.12-0.33-4.61-0.81c-0.73-0.29-1.22-0.99-1.23-1.78c0-1.1,0.25-1.4,1.23-2.57
			c6.91-8.2,6.08-12.22,4.53-15.95c-0.33-0.65-0.54-1.36-0.62-2.09c0.06-6.51,2.65-12.73,7.22-17.37c3.66,0.54,8.75,1.14,11.4,1.44
			l-0.62,4.38c-0.54,3.75,2.07,7.22,5.82,7.76c0.32,0.05,0.64,0.07,0.97,0.07h2.64c1.89,0,3.43,1.53,3.43,3.43v3.43
			c0,0.95,0.77,1.71,1.71,1.71s1.71-0.77,1.71-1.71v-3.43c0-3.78-3.07-6.85-6.86-6.85h-2.64c-1.89,0-3.43-1.54-3.43-3.43
			c0-0.16,0.01-0.32,0.03-0.48l0.88-6.13c0.13-0.94-0.52-1.81-1.46-1.94c-0.02,0-0.04,0-0.06-0.01c-0.08-0.01-8.58-0.93-13.6-1.7
			c-0.07-0.02-0.15-0.05-0.22-0.06c-1.29-0.33-1.86-1.85-1.76-3.27c0.05-2.02,1.73-3.61,3.75-3.55c0.02,0,0.05,0,0.07,0h25.28
			c0.95,0,1.72-0.76,1.72-1.71C-230.04,2.67-230.8,1.91-231.74,1.91c-0.01,0-0.01,0-0.01,0L-231.74,1.91z"/>
	</g>
</g>
</svg>
