<?xml version="1.0" encoding="iso-8859-1"?>
<!-- Generator: Adobe Illustrator 19.0.0, SVG Export Plug-In . SVG Version: 6.00 Build 0)  -->
<svg version="1.1" id="Capa_1" xmlns="http://www.w3.org/2000/svg" xmlns:xlink="http://www.w3.org/1999/xlink" x="0px" y="0px"
	 viewBox="0 0 510.996 510.996" style="enable-background:new 0 0 510.996 510.996;" xml:space="preserve">
<g>
	<path d="M318.998,39.5c0-21.78-17.72-39.5-39.5-39.5h-48c-21.78,0-39.5,17.72-39.5,39.5v189.09c0,0.736,0.028,1.47,0.036,2.206
		c-0.022,0.232-0.036,0.467-0.036,0.705c0,0.311,0.025,0.616,0.062,0.917c0.306,17.215,2.65,34.359,7.034,51.016l32.904,125.037
		v78.173c0,11.887,8.43,22.221,19.608,24.04c1.287,0.209,2.576,0.312,3.856,0.312c5.572,0,10.977-1.952,15.254-5.589
		c5.263-4.476,8.281-11.002,8.281-17.907v-79.03l32.904-125.037c4.384-16.657,6.728-33.801,7.034-51.016
		c0.037-0.301,0.062-0.606,0.062-0.917c0-0.238-0.014-0.472-0.036-0.705c0.008-0.735,0.036-1.47,0.036-2.206V39.5z M231.498,15h48
		c13.509,0,24.5,10.991,24.5,24.5V224h-3.938c-9.628,0-18.062,6.184-21.485,15.754c-3.477,9.717-12.75,16.246-23.077,16.246
		s-19.601-6.529-23.077-16.246c-3.424-9.57-11.857-15.754-21.485-15.754h-3.938V39.5C206.998,25.991,217.989,15,231.498,15z
		 M260.999,493.98c-1.931,1.643-4.413,2.317-6.984,1.898c-3.935-0.64-7.017-4.696-7.017-9.234V471h17v16.5
		C263.998,489.998,262.905,492.359,260.999,493.98z M264.245,405.591c-0.164,0.623-0.247,1.265-0.247,1.909V456h-17v-48.5
		c0-0.644-0.083-1.286-0.247-1.909l-33.151-125.976c-3.496-13.287-5.593-26.907-6.306-40.616h3.643c3.21,0,6.1,2.279,7.362,5.807
		c5.604,15.667,20.554,26.193,37.2,26.193s31.596-10.526,37.201-26.194c1.262-3.527,4.151-5.806,7.361-5.806h3.643
		c-0.714,13.709-2.81,27.329-6.306,40.616L264.245,405.591z"/>
	<path d="M255.498,224c-1.97,0-3.91,0.8-5.3,2.2c-1.4,1.39-2.2,3.33-2.2,5.3c0,1.97,0.8,3.91,2.2,5.3c1.39,1.4,3.33,2.2,5.3,2.2
		c1.97,0,3.91-0.8,5.3-2.2c1.4-1.39,2.2-3.33,2.2-5.3c0-1.97-0.8-3.91-2.2-5.3C259.407,224.8,257.468,224,255.498,224z"/>
	<path d="M232.498,207h46c4.687,0,8.5-3.813,8.5-8.5v-158c0-4.687-3.813-8.5-8.5-8.5h-46c-4.687,0-8.5,3.813-8.5,8.5v158
		C223.998,203.187,227.811,207,232.498,207z M238.998,47h33v145h-33V47z"/>
</g>
<g>
</g>
<g>
</g>
<g>
</g>
<g>
</g>
<g>
</g>
<g>
</g>
<g>
</g>
<g>
</g>
<g>
</g>
<g>
</g>
<g>
</g>
<g>
</g>
<g>
</g>
<g>
</g>
<g>
</g>
</svg>
