<?xml version="1.0" encoding="utf-8"?>
<!-- Generator: Adobe Illustrator 25.0.1, SVG Export Plug-In . SVG Version: 6.00 Build 0)  -->
<svg version="1.1" id="Layer_1" xmlns="http://www.w3.org/2000/svg" xmlns:xlink="http://www.w3.org/1999/xlink" x="0px" y="0px"
	 viewBox="0 0 90 90" style="enable-background:new 0 0 90 90;" xml:space="preserve">
<g id="Layer_7">
	<g id="Group_34" transform="translate(-280 -256)">
		<g id="Group_33" transform="translate(286.782 256)">
			<path id="Path_35" d="M6.03,53.51c-0.44-1.7-0.67-3.45-0.68-5.21V15.56c5.32-0.43,22.16-2.33,32.64-9.78
				c6.71,4.77,16.02,7.26,23.25,8.55l3-3c-7.45-1.15-18.31-3.67-25.19-9.05c-0.62-0.48-1.49-0.48-2.12,0
				c-11.25,8.79-33.16,9.95-33.38,9.96c-0.92,0.05-1.63,0.8-1.64,1.72v34.35c0.01,1.99,0.26,3.98,0.75,5.91
				C3.67,53.6,4.86,53.36,6.03,53.51z"/>
			<path id="Path_36" d="M70.63,48.31c0,19.23-27.82,33.55-32.64,35.88c-3.05-1.5-6.02-3.16-8.9-4.98
				c-0.38,1.15-1.18,2.12-2.23,2.71c3.35,2.13,6.84,4.05,10.44,5.73c0.45,0.2,0.96,0.2,1.41,0C40.14,87,74.07,71.47,74.07,48.31
				V16.07l-3.44,3.44V48.31z"/>
		</g>
		<path id="Path_37" d="M367.21,258.42c-0.67-0.67-1.76-0.67-2.43,0l0,0l-20.26,20.26l-1.36-1.36c-0.67-0.67-1.76-0.67-2.43,0l0,0
			l-6.52,6.52l-1.36-1.36c-0.67-0.67-1.76-0.67-2.43,0l0,0l-34,34l-3.08-3.08c-0.71-0.63-1.8-0.57-2.43,0.14
			c-0.58,0.65-0.58,1.64,0,2.29l5.66,5.66l-9.6,9.6l-2.22-2.22c-0.71-0.63-1.8-0.57-2.43,0.14c-0.58,0.65-0.58,1.64,0,2.29
			l12.02,12.02c0.63,0.71,1.72,0.78,2.43,0.14c0.71-0.63,0.78-1.72,0.14-2.43c-0.04-0.05-0.09-0.1-0.14-0.14l-2.22-2.22l9.6-9.6
			l5.66,5.66c0.71,0.63,1.8,0.57,2.43-0.14c0.58-0.65,0.58-1.64,0-2.29l-3.08-3.08l34-34c0.67-0.67,0.67-1.76,0-2.43l0,0l-1.36-1.36
			l6.52-6.52c0.67-0.67,0.67-1.76,0-2.43l0,0l-1.36-1.36l20.26-20.26C367.87,260.18,367.88,259.09,367.21,258.42z M292.13,336.23
			l-2.72-2.72l9.6-9.6l2.72,2.72L292.13,336.23z M333.36,300.16l-3.94-3.94l-2.43,2.43l3.94,3.94l-6.16,6.16l-3.94-3.94l-2.43,2.43
			l3.94,3.94l-6.16,6.16l-3.94-3.94l-2.43,2.43l3.94,3.94l-7.02,7.02l-7.88-7.88l32.79-32.79l7.88,7.88L333.36,300.16z
			 M339.37,288.99l-2.72-2.72l5.3-5.3l2.72,2.72L339.37,288.99z"/>
	</g>
</g>
</svg>
